<svg width="44" height="45" viewBox="0 0 44 45" fill="none" xmlns="http://www.w3.org/2000/svg">
<rect y="0.5" width="44" height="44" rx="22" fill="#4A90E2"/>
<path d="M14.2856 17.625L19.7667 20.7306C21.7873 21.8755 22.6411 21.8755 24.6618 20.7306L30.1428 17.625" stroke="#F1F1F1" stroke-width="1.5" stroke-linejoin="round"/>
<path d="M14.2981 23.552C14.35 25.9826 14.3759 27.1978 15.2727 28.0981C16.1695 28.9983 17.4177 29.0296 19.914 29.0924C21.4525 29.1311 22.9759 29.1311 24.5144 29.0924C27.0107 29.0296 28.2589 28.9983 29.1557 28.0981C30.0525 27.1978 30.0785 25.9826 30.1302 23.552C30.147 22.7705 30.147 21.9937 30.1302 21.2122C30.0785 18.7816 30.0525 17.5664 29.1557 16.6661C28.2589 15.7659 27.0107 15.7345 24.5144 15.6718C22.9759 15.6332 21.4525 15.6332 19.914 15.6718C17.4177 15.7345 16.1695 15.7659 15.2727 16.6661C14.3759 17.5664 14.35 18.7816 14.2981 21.2122C14.2815 21.9937 14.2815 22.7705 14.2981 23.552Z" stroke="#F1F1F1" stroke-width="1.5" stroke-linejoin="round"/>
</svg>
