<svg width="44" height="45" viewBox="0 0 44 45" fill="none" xmlns="http://www.w3.org/2000/svg">
<path d="M23.7276 13.9442L25.4874 17.4929C25.7274 17.9869 26.3673 18.4607 26.9073 18.5514L30.0969 19.0857C32.1367 19.4285 32.6167 20.9206 31.1468 22.3925L28.6671 24.8927C28.2471 25.3161 28.0172 26.1327 28.1471 26.7175L28.8571 29.8125C29.417 32.2623 28.1271 33.21 25.9774 31.9296L22.9877 30.1452C22.4478 29.8226 21.5579 29.8226 21.0079 30.1452L18.0183 31.9296C15.8785 33.21 14.5786 32.2522 15.1386 29.8125L15.8485 26.7175C15.9785 26.1327 15.7485 25.3161 15.3286 24.8927L12.8488 22.3925C11.389 20.9206 11.8589 19.4285 13.8987 19.0857L17.0884 18.5514C17.6183 18.4607 18.2582 17.9869 18.4982 17.4929L20.258 13.9442C21.2179 12.0186 22.7777 12.0186 23.7276 13.9442Z" fill="#FFEA00" stroke="#FFEA04" stroke-width="1.5" stroke-linecap="round" stroke-linejoin="round"/>
</svg>
