<svg width="44" height="45" viewBox="0 0 44 45" fill="none" xmlns="http://www.w3.org/2000/svg">
<rect y="0.5" width="44" height="44" rx="22" fill="#4383CE"/>
<path d="M25.5 21.5C25.5 19.567 23.933 18 22 18C20.067 18 18.5 19.567 18.5 21.5C18.5 23.433 20.067 25 22 25C23.933 25 25.5 23.433 25.5 21.5Z" stroke="#D4D4D4" stroke-width="1.5" stroke-linecap="round" stroke-linejoin="round"/>
<path d="M25.4827 21.8499C25.8047 21.9475 26.1462 22 26.5 22C28.433 22 30 20.433 30 18.5C30 16.567 28.433 15 26.5 15C24.6851 15 23.1928 16.3814 23.0173 18.1501" stroke="#D4D4D4" stroke-width="1.5" stroke-linecap="round" stroke-linejoin="round"/>
<path d="M20.9827 18.1501C20.8072 16.3814 19.3149 15 17.5 15C15.567 15 14 16.567 14 18.5C14 20.433 15.567 22 17.5 22C17.8538 22 18.1954 21.9475 18.5173 21.8499" stroke="#D4D4D4" stroke-width="1.5" stroke-linecap="round" stroke-linejoin="round"/>
<path d="M32 27C32 24.2386 29.5376 22 26.5 22" stroke="#D4D4D4" stroke-width="1.5" stroke-linecap="round" stroke-linejoin="round"/>
<path d="M27.5 30C27.5 27.2386 25.0376 25 22 25C18.9624 25 16.5 27.2386 16.5 30" stroke="#D4D4D4" stroke-width="1.5" stroke-linecap="round" stroke-linejoin="round"/>
<path d="M17.5 22C14.4624 22 12 24.2386 12 27" stroke="#D4D4D4" stroke-width="1.5" stroke-linecap="round" stroke-linejoin="round"/>
</svg>
