<svg width="24" height="25" viewBox="0 0 24 25" fill="none" xmlns="http://www.w3.org/2000/svg">
<path d="M11.5143 2.59327C11.8265 2.46891 12.1735 2.46891 12.4857 2.59327C13.4921 2.99406 13.6887 4.53744 14.8762 4.62336C15.7124 4.68386 16.533 3.98677 17.3721 4.19574C17.7105 4.28003 18.0028 4.49579 18.186 4.79657C18.7472 5.71824 18.0229 7.07292 18.9383 7.83768C19.5743 8.36877 20.6251 8.30004 21.178 8.9511C21.4108 9.22534 21.5252 9.58303 21.4953 9.9437C21.4068 11.0166 20.0389 11.6876 20.3395 12.8439C20.5475 13.6443 21.4253 14.207 21.4953 15.0563C21.5252 15.417 21.4108 15.7747 21.178 16.0489C20.4832 16.8669 18.9808 16.5975 18.5476 17.7062C18.2434 18.4844 18.634 19.4677 18.186 20.2034C18.0028 20.5042 17.7105 20.72 17.3721 20.8043C16.3302 21.0637 15.2727 19.9445 14.2701 20.5758C13.5543 21.0264 13.2978 22.0835 12.4857 22.4067C12.1735 22.5311 11.8265 22.5311 11.5143 22.4067C10.7022 22.0835 10.4457 21.0264 9.72989 20.5758C8.73971 19.9524 7.65213 21.0593 6.62791 20.8043C6.28947 20.72 5.9972 20.5042 5.81405 20.2034C5.25286 19.2818 5.97704 17.927 5.0617 17.1623C4.42582 16.6312 3.37494 16.7 2.82204 16.0489C2.58921 15.7747 2.47484 15.417 2.50465 15.0563C2.57485 14.207 3.4524 13.6443 3.6605 12.8439C3.95808 11.6997 2.59204 11.0009 2.50465 9.9437C2.47484 9.58303 2.58921 9.22534 2.82204 8.9511C3.51676 8.13284 5.01899 8.40253 5.45238 7.29383C5.75662 6.5156 5.36608 5.53227 5.81405 4.79657C5.9972 4.49579 6.28947 4.28003 6.62791 4.19574C7.46705 3.98677 8.28757 4.68387 9.12378 4.62336C10.3113 4.53746 10.5079 2.99406 11.5143 2.59327Z" stroke="#C0AA00" stroke-width="1.5" stroke-linejoin="round"/>
<path d="M9 13.8333C9 13.8333 9.875 13.8333 10.75 15.5C10.75 15.5 13.5294 11.3333 16 10.5" stroke="#C0AA00" stroke-width="1.5" stroke-linecap="round" stroke-linejoin="round"/>
</svg>
