<svg width="54" height="54" viewBox="0 0 54 54" fill="none" xmlns="http://www.w3.org/2000/svg">
<path d="M6.75 36L16.8068 25.9432C17.5708 25.1793 18.607 24.75 19.6875 24.75C20.768 24.75 21.8042 25.1793 22.5682 25.9432L31.5 34.875M31.5 34.875L34.875 38.25M31.5 34.875L35.9318 30.4432C36.6957 29.6793 37.7321 29.25 38.8125 29.25C39.8929 29.25 40.9293 29.6793 41.6932 30.4432L47.25 36" stroke="#535353" stroke-width="1.5" stroke-linecap="round" stroke-linejoin="round"/>
<path d="M34.875 18C35.4962 18 36 17.4963 36 16.875C36 16.2537 35.4962 15.75 34.875 15.75M34.875 18C34.2538 18 33.75 17.4963 33.75 16.875C33.75 16.2537 34.2538 15.75 34.875 15.75M34.875 18V15.75" stroke="#535353" stroke-width="1.5" stroke-linecap="round" stroke-linejoin="round"/>
<path d="M8.32043 44.4312C5.625 41.2753 5.625 36.5168 5.625 27C5.625 17.4831 5.625 12.7246 8.32043 9.56871C8.70318 9.12055 9.12055 8.70318 9.56871 8.32043C12.7246 5.625 17.4831 5.625 27 5.625C36.5168 5.625 41.2753 5.625 44.4312 8.32043C44.8794 8.70318 45.2968 9.12055 45.6795 9.56871C48.375 12.7246 48.375 17.4831 48.375 27C48.375 36.5168 48.375 41.2753 45.6795 44.4312C45.2968 44.8794 44.8794 45.2968 44.4312 45.6795C41.2753 48.375 36.5168 48.375 27 48.375C17.4831 48.375 12.7246 48.375 9.56871 45.6795C9.12055 45.2968 8.70318 44.8794 8.32043 44.4312Z" stroke="#535353" stroke-width="1.5" stroke-linecap="round" stroke-linejoin="round"/>
</svg>
